<?xml version="1.0" standalone="no"?>
<!DOCTYPE svg PUBLIC "-//W3C//DTD SVG 20010904//EN"
 "http://www.w3.org/TR/2001/REC-SVG-20010904/DTD/svg10.dtd">
<svg version="1.0" xmlns="http://www.w3.org/2000/svg"
 width="61.000000pt" height="61.000000pt" viewBox="0 0 61.000000 61.000000"
 preserveAspectRatio="xMidYMid meet">

<g transform="translate(0.000000,61.000000) scale(0.100000,-0.100000)"
fill="#000000" stroke="none">
<path d="M0 305 l0 -305 305 0 305 0 0 305 0 305 -305 0 -305 0 0 -305z m431
207 l29 -32 0 -169 c0 -93 -3 -176 -6 -185 -3 -9 -22 -26 -42 -38 -46 -28
-150 -31 -200 -4 -56 29 -77 110 -48 181 16 36 41 53 126 80 71 23 90 40 90
81 0 40 -21 54 -80 54 -35 0 -43 -4 -58 -30 -14 -25 -23 -30 -54 -30 -32 0
-38 3 -38 20 0 33 28 78 58 95 19 11 50 15 110 13 80 -3 85 -4 113 -36z"/>
<path d="M312 273 c-69 -27 -87 -49 -77 -93 13 -59 123 -63 145 -5 12 31 13
125 3 124 -5 0 -36 -12 -71 -26z"/>
</g>
</svg>
