<svg xmlns="http://www.w3.org/2000/svg" viewBox="0 0 74.5 73.03"><defs><style>.cls-1{fill:#cad3dd;}.cls-2{fill:#fff;}</style></defs><title>Recurso 366</title><g id="Capa_2" data-name="Capa 2"><g id="Capa_1-2" data-name="Capa 1"><rect class="cls-1" width="74.5" height="73.03" rx="16.46"/><path class="cls-2" d="M47.88,34.39h-17v-8.5a6.38,6.38,0,0,1,12.76,0V28h4.25V25.89a10.63,10.63,0,0,0-21.26,0v8.5a4.25,4.25,0,0,0-4.25,4.25V53.52a4.25,4.25,0,0,0,4.25,4.26H47.88a4.26,4.26,0,0,0,4.25-4.26V38.64A4.26,4.26,0,0,0,47.88,34.39ZM26.62,53.52V38.64H47.88V53.52Z"/><circle class="cls-2" cx="37.25" cy="46.08" r="3.19"/></g></g></svg>